<svg width="120" height="120" viewBox="0 0 120 120" fill="none" xmlns="http://www.w3.org/2000/svg">
  <rect width="120" height="120" rx="30" fill="#0C2C55"/>
  
  <circle cx="60" cy="60" r="36" fill="#296374" fill-opacity="0.5"/>
  
  <path d="M78 42C78 51.9411 69.9411 60 60 60C50.0589 60 42 51.9411 42 42C42 32.0589 50.0589 24 60 24C69.9411 24 78 32.0589 78 42Z" stroke="#EDEDCE" stroke-width="8" stroke-linecap="round"/>
  
  <path d="M42 78C42 68.0589 50.0589 60 60 60C69.9411 60 78 68.0589 78 78C78 87.9411 69.9411 96 60 96C50.0589 96 42 87.9411 42 78Z" stroke="#629FAD" stroke-width="8" stroke-linecap="round"/>
  
  <circle cx="60" cy="60" r="6" fill="#EDEDCE"/>
</svg>